<svg width="34" height="30" viewBox="0 0 34 30" fill="none" xmlns="http://www.w3.org/2000/svg">
<path d="M22.2962 9.68125L17.0897 4.84338C16.3051 4.11438 15.0926 4.11438 14.3794 4.84338C13.5949 5.57237 13.5949 6.699 14.3794 7.36172L24.7212 18.2966L25.791 15.6457L22.2962 9.68125Z" fill="black"/>
<path d="M24.791 28.7966C29.8143 28.6652 33.791 24.7886 33.791 20.0579C33.791 18.6124 33.4422 17.2326 32.7445 16.0499L28.7678 8.95376C28.2794 8.03389 27.3026 7.57395 26.3259 7.90248C25.3492 8.231 24.8608 9.28228 25.2096 10.2021" fill="black"/>
<path d="M4.69772 4.65885L3.2326 2.28735L2.25586 3.16819L4.69772 4.65885Z" fill="white" stroke="white" stroke-width="0.5" stroke-miterlimit="10" stroke-linecap="round" stroke-linejoin="round"/>
<path d="M7.27961 3.77804L8.39589 1.20327L7.07031 1L7.27961 3.77804Z" fill="white" stroke="white" stroke-width="0.5" stroke-miterlimit="10" stroke-linecap="round" stroke-linejoin="round"/>
<path d="M3.86047 7.1658L1.2093 8.18216L1 6.89478L3.86047 7.1658Z" fill="white" stroke="white" stroke-width="0.5" stroke-miterlimit="10" stroke-linecap="round" stroke-linejoin="round"/>
<path d="M18.534 16.0392L9.6611 7.01831C8.94854 6.29911 7.81827 6.26875 7.13461 6.95043C6.45094 7.63211 6.35541 8.71145 7.06968 9.36705L16.009 18.3897L8.29875 10.6729C7.58619 9.9537 6.45592 9.92333 5.77225 10.605C5.08859 11.2867 4.99306 12.366 5.70732 13.0216L13.3511 20.7367L8.42629 15.8313C7.71373 15.1121 6.58175 15.1453 5.83331 15.7616C5.08487 16.3779 5.05411 17.5226 5.76838 18.1782L14.5816 26.9429L14.5168 26.8776C16.0681 28.5739 18.3678 29.654 20.8943 29.7218C25.8143 29.854 29.8395 26.1437 29.9643 21.5013C30.0018 20.1022 29.7053 18.7577 29.0712 17.5951L25.466 10.625C25.0228 9.78578 23.7299 9.00366 22.7905 9.29663C21.8512 9.5896 21.7342 10.843 22.0427 11.7422L24.0507 16.2511L13.6794 6.04438C12.9668 5.32518 11.8365 5.29481 11.1529 5.97649C10.4027 6.65639 10.3737 7.73751 11.0879 8.39312L18.534 16.0392Z" fill="black"/>
<path d="M18.4415 15.6354L9.37175 6.82702C8.67408 6.14945 7.5578 6.14945 6.86012 6.82702C6.16245 7.50459 6.16245 8.58871 6.86012 9.26628L15.9299 18.0747L8.11594 10.5537C7.41826 9.87609 6.30198 9.87609 5.60431 10.5537C4.90664 11.2312 4.90664 12.3153 5.60431 12.9929L13.3485 20.5817L8.39501 15.7709C7.69733 15.0934 6.51129 15.0934 5.81361 15.7709C5.11594 16.4485 5.11594 17.5326 5.81361 18.2102L14.7438 26.8153L14.6741 26.7476C16.2787 28.3738 18.5811 29.4579 21.0927 29.4579C25.9764 29.4579 29.8834 25.6635 29.8834 20.9205C29.8834 19.4976 29.5345 18.1424 28.9066 16.9906L25.1392 10.0794C24.7206 9.19852 23.7438 8.72422 22.8369 9.063C21.9299 9.40179 21.4415 10.4181 21.7904 11.299L23.8834 15.7709L13.3485 5.81067C12.6508 5.1331 11.5345 5.1331 10.8369 5.81067C10.1392 6.48824 10.1392 7.57235 10.8369 8.24992L18.4415 15.6354Z" stroke="white" stroke-miterlimit="10" stroke-linecap="round" stroke-linejoin="round"/>
<path d="M22.2092 9.46954L17.3952 4.79431C16.6976 4.11674 15.5813 4.11674 14.8836 4.79431C14.1859 5.47188 14.1859 6.55599 14.8836 7.23356" stroke="white" stroke-miterlimit="10" stroke-linecap="round" stroke-linejoin="round"/>
<path d="M24.9297 28.6448C29.6739 28.5092 33.4413 24.7148 33.4413 20.1074C33.4413 18.6845 33.0925 17.3293 32.4646 16.1775L28.6971 9.19849C28.2088 8.31765 27.3018 7.84335 26.3948 8.18213C25.4878 8.52092 24.9995 9.53727 25.3483 10.4181" stroke="white" stroke-miterlimit="10" stroke-linecap="round" stroke-linejoin="round"/>
</svg>
