<svg width="33" height="29" viewBox="0 0 33 29" fill="none" xmlns="http://www.w3.org/2000/svg">
<g clip-path="url(#clip0_356_654)">
<path d="M3.9067 3.86216L2.44159 1.49066L1.46484 2.3715L3.9067 3.86216Z" fill="black" stroke="black" stroke-width="0.6345" stroke-miterlimit="10" stroke-linecap="round" stroke-linejoin="round"/>
<path d="M6.4886 2.98132L7.60488 0.406549L6.2793 0.203278L6.4886 2.98132Z" fill="black" stroke="black" stroke-width="0.6345" stroke-miterlimit="10" stroke-linecap="round" stroke-linejoin="round"/>
<path d="M3.06945 6.36916L0.418287 7.38551L0.208984 6.09813L3.06945 6.36916Z" fill="black" stroke="black" stroke-width="0.6345" stroke-miterlimit="10" stroke-linecap="round" stroke-linejoin="round"/>
<path d="M17.6515 14.8388L8.58171 6.03038C7.88404 5.35281 6.76776 5.35281 6.07009 6.03038C5.37241 6.70795 5.37241 7.79206 6.07009 8.46963L15.1399 17.278L7.3259 9.75701C6.62822 9.07944 5.51195 9.07944 4.81427 9.75701C4.1166 10.4346 4.1166 11.5187 4.81427 12.1963L12.5585 19.7851L7.60497 14.9743C6.90729 14.2967 5.72125 14.2967 5.02357 14.9743C4.3259 15.6519 4.3259 16.736 5.02357 17.4136L13.9538 26.0187L13.884 25.9509C15.4887 27.5771 17.791 28.6612 20.3026 28.6612C25.1864 28.6612 29.0933 24.8668 29.0933 20.1238C29.0933 18.7009 28.7445 17.3458 28.1166 16.1939L24.3492 9.28271C23.9306 8.40187 22.9538 7.92757 22.0468 8.26636C21.1399 8.60514 20.6515 9.6215 21.0003 10.5023L23.0933 14.9743L12.5585 5.01402C11.8608 4.33645 10.7445 4.33645 10.0468 5.01402C9.34916 5.69159 9.34916 6.7757 10.0468 7.45327L17.6515 14.8388Z" stroke="black" stroke-miterlimit="10" stroke-linecap="round" stroke-linejoin="round"/>
<path d="M21.4182 8.6729L16.6042 3.99766C15.9065 3.32009 14.7903 3.32009 14.0926 3.99766C13.3949 4.67523 13.3949 5.75935 14.0926 6.43692" stroke="black" stroke-miterlimit="10" stroke-linecap="round" stroke-linejoin="round"/>
<path d="M24.1396 27.8481C28.8838 27.7126 32.6513 23.9182 32.6513 19.3108C32.6513 17.8879 32.3024 16.5327 31.6745 15.3808L27.9071 8.40187C27.4187 7.52103 26.5117 7.04673 25.6048 7.38552C24.6978 7.7243 24.2094 8.74066 24.5583 9.6215" stroke="black" stroke-miterlimit="10" stroke-linecap="round" stroke-linejoin="round"/>
</g>
<defs>
<clipPath id="clip0_356_654">
<rect width="33" height="29" fill="white"/>
</clipPath>
</defs>
</svg>
